<svg width="100" height="100" viewBox="0 0 100 100" fill="none" xmlns="http://www.w3.org/2000/svg">
<path d="M11.707 21.65C11.5219 16.3258 15.6695 11.4164 21.2766 11.4164H78.7297C84.3367 11.4164 88.4844 16.3258 88.2992 21.65C88.1211 26.764 88.3523 33.389 90.0195 38.7906C91.6922 44.2094 94.5125 47.6336 99.132 48.0742V53.064C94.5125 53.5047 91.6922 56.9289 90.0195 62.3476C88.3523 67.7492 88.1211 74.3742 88.2992 79.4883C88.4844 84.8125 84.3367 89.7211 78.7297 89.7211H21.2766C15.6695 89.7211 11.5219 84.8117 11.707 79.4883C11.8852 74.3742 11.6539 67.7492 9.98594 62.3476C8.31406 56.9297 5.48594 53.5047 0.866409 53.064V48.0742C5.48594 47.6344 8.31406 44.2094 9.98594 38.7906C11.6539 33.389 11.8844 26.764 11.707 21.65Z" fill="url(#paint0_linear_77_61)"/>
<g filter="url(#filter0_d_77_61)">
<path d="M52.4295 71.6689C61.5069 71.6689 66.9768 67.2244 66.9768 59.8935C66.9768 54.3522 63.0739 50.3404 57.2786 49.7054V49.4745C61.5364 48.7818 64.8776 44.8279 64.8776 40.4121C64.8776 34.1203 59.9103 30.0219 52.3409 30.0219H35.3097V71.6689H52.4295ZM41.9329 35.3035H50.7443C55.5342 35.3035 58.2544 37.4392 58.2544 41.3067C58.2544 45.4339 55.0907 47.7428 49.3546 47.7428H41.9329V35.3035ZM41.9329 66.3872V52.678H50.685C56.9533 52.678 60.2058 54.9869 60.2058 59.4893C60.2058 63.9916 57.0422 66.3872 51.0694 66.3872H41.9329Z" fill="url(#paint1_linear_77_61)"/>
<path d="M52.4295 71.6689C61.5069 71.6689 66.9768 67.2244 66.9768 59.8935C66.9768 54.3522 63.0739 50.3404 57.2786 49.7054V49.4745C61.5364 48.7818 64.8776 44.8279 64.8776 40.4121C64.8776 34.1203 59.9103 30.0219 52.3409 30.0219H35.3097V71.6689H52.4295ZM41.9329 35.3035H50.7443C55.5342 35.3035 58.2544 37.4392 58.2544 41.3067C58.2544 45.4339 55.0907 47.7428 49.3546 47.7428H41.9329V35.3035ZM41.9329 66.3872V52.678H50.685C56.9533 52.678 60.2058 54.9869 60.2058 59.4893C60.2058 63.9916 57.0422 66.3872 51.0694 66.3872H41.9329Z" stroke="white" stroke-width="0.24566"/>
</g>
<defs>
<filter id="filter0_d_77_61" x="31.2563" y="26.9511" width="39.7739" height="49.7538" filterUnits="userSpaceOnUse" color-interpolation-filters="sRGB">
<feFlood flood-opacity="0" result="BackgroundImageFix"/>
<feColorMatrix in="SourceAlpha" type="matrix" values="0 0 0 0 0 0 0 0 0 0 0 0 0 0 0 0 0 0 127 0" result="hardAlpha"/>
<feOffset dy="0.98264"/>
<feGaussianBlur stdDeviation="1.96528"/>
<feColorMatrix type="matrix" values="0 0 0 0 0 0 0 0 0 0 0 0 0 0 0 0 0 0 0.15 0"/>
<feBlend mode="normal" in2="BackgroundImageFix" result="effect1_dropShadow_77_61"/>
<feBlend mode="normal" in="SourceGraphic" in2="effect1_dropShadow_77_61" result="shape"/>
</filter>
<linearGradient id="paint0_linear_77_61" x1="15.4684" y1="13.4888" x2="101.334" y2="81.6502" gradientUnits="userSpaceOnUse">
<stop stop-color="#9013FE"/>
<stop offset="1" stop-color="#6610F2"/>
</linearGradient>
<linearGradient id="paint1_linear_77_61" x1="38.306" y1="32.7625" x2="57.4982" y2="65.2222" gradientUnits="userSpaceOnUse">
<stop stop-color="white"/>
<stop offset="1" stop-color="#F1E5FC"/>
</linearGradient>
</defs>
</svg>
