<svg width="122" height="97" viewBox="0 0 122 97" fill="none" xmlns="http://www.w3.org/2000/svg">
<g clip-path="url(#clip0_39_59)">
<path d="M13.7564 13.2429C13.5289 6.71019 18.6187 0.686157 25.4986 0.686157H95.9955C102.875 0.686157 107.965 6.71019 107.738 13.2429C107.519 19.5182 107.803 27.6471 109.849 34.2752C111.901 40.9238 115.362 45.1262 121.03 45.6662V51.7891C115.362 52.3291 111.901 56.5316 109.849 63.1802C107.803 69.8082 107.519 77.9372 107.738 84.2127C107.965 90.7452 102.875 96.7692 95.9955 96.7692H25.4986C18.6187 96.7692 13.5289 90.7452 13.7566 84.2127C13.9749 77.9372 13.6912 69.8082 11.6452 63.1802C9.59304 56.5316 6.12369 52.3291 0.455261 51.7891V45.6662C6.12345 45.1262 9.59304 40.9238 11.6452 34.2752C13.6912 27.6471 13.9749 19.5182 13.7564 13.2429Z" fill="url(#paint0_linear_39_59)"/>
<g filter="url(#filter0_d_39_59)">
<path d="M63.3574 74.269C74.4957 74.269 81.2076 68.8154 81.2076 59.82C81.2076 53.0205 76.4185 48.0979 69.3075 47.3187V47.0354C74.532 46.1854 78.6318 41.3337 78.6318 35.9154C78.6318 28.1951 72.5366 23.166 63.2486 23.166H42.3505V74.269H63.3574ZM50.4775 29.6469H61.2895C67.167 29.6469 70.5047 32.2675 70.5047 37.013C70.5047 42.0774 66.6228 44.9105 59.5842 44.9105H50.4775V29.6469ZM50.4775 67.7883V50.9665H61.2167C68.9083 50.9665 72.8993 53.7995 72.8993 59.3243C72.8993 64.8489 69.0173 67.7883 61.6884 67.7883H50.4775Z" fill="url(#paint1_linear_39_59)"/>
<path d="M63.3574 74.269C74.4957 74.269 81.2076 68.8154 81.2076 59.82C81.2076 53.0205 76.4185 48.0979 69.3075 47.3187V47.0354C74.532 46.1854 78.6318 41.3337 78.6318 35.9154C78.6318 28.1951 72.5366 23.166 63.2486 23.166H42.3505V74.269H63.3574ZM50.4775 29.6469H61.2895C67.167 29.6469 70.5047 32.2675 70.5047 37.013C70.5047 42.0774 66.6228 44.9105 59.5842 44.9105H50.4775V29.6469ZM50.4775 67.7883V50.9665H61.2167C68.9083 50.9665 72.8993 53.7995 72.8993 59.3243C72.8993 64.8489 69.0173 67.7883 61.6884 67.7883H50.4775Z" stroke="white"/>
</g>
</g>
<defs>
<filter id="filter0_d_39_59" x="25.8505" y="10.666" width="71.8571" height="84.103" filterUnits="userSpaceOnUse" color-interpolation-filters="sRGB">
<feFlood flood-opacity="0" result="BackgroundImageFix"/>
<feColorMatrix in="SourceAlpha" type="matrix" values="0 0 0 0 0 0 0 0 0 0 0 0 0 0 0 0 0 0 127 0" result="hardAlpha"/>
<feOffset dy="4"/>
<feGaussianBlur stdDeviation="8"/>
<feColorMatrix type="matrix" values="0 0 0 0 0 0 0 0 0 0 0 0 0 0 0 0 0 0 0.15 0"/>
<feBlend mode="normal" in2="BackgroundImageFix" result="effect1_dropShadow_39_59"/>
<feBlend mode="normal" in="SourceGraphic" in2="effect1_dropShadow_39_59" result="shape"/>
</filter>
<linearGradient id="paint0_linear_39_59" x1="18.3717" y1="3.22906" x2="123.734" y2="86.8653" gradientUnits="userSpaceOnUse">
<stop stop-color="#9013FE"/>
<stop offset="1" stop-color="#6610F2"/>
</linearGradient>
<linearGradient id="paint1_linear_39_59" x1="46.0259" y1="26.5296" x2="69.5771" y2="66.3598" gradientUnits="userSpaceOnUse">
<stop stop-color="white"/>
<stop offset="1" stop-color="#F1E5FC"/>
</linearGradient>
<clipPath id="clip0_39_59">
<rect width="120.575" height="96.083" fill="white" transform="translate(0.455261 0.686157)"/>
</clipPath>
</defs>
</svg>
