<svg width="100" height="100" viewBox="0 0 100 100" fill="none" xmlns="http://www.w3.org/2000/svg">
<path d="M21.0273 91.9727L14.584 19.6387H85.416L78.9727 91.9453L49.9453 100L21.0273 91.9727Z" fill="#1F72B5"/>
<path d="M50 93.8613L73.4453 87.3613L78.9727 25.5547H50V93.8613Z" fill="#51A3DC"/>
<path d="M26.9727 42.25L26.1113 33.8887H73.8887L73.334 43.584L53.1387 52.5H72.5L70.416 80L50.8887 85.25L30.6387 80.334L29.3887 66.3887H38.334L38.834 73.75L50.5547 75.9453L61.3887 72.6113L61.8887 60.834H28.6113L28 52.084L50 42.4453L26.9727 42.25Z" fill="#EBEBEB"/>
<path d="M28 52.084L28.6113 60.834H50V42.4453L28 52.084Z" fill="#CECECE"/>
<path d="M38.834 73.75L38.334 66.3887H29.3887L30.6387 80.334L50 85.0273V75.834L38.834 73.75Z" fill="#CECECE"/>
<path d="M26.1113 33.8887L26.9727 42.25L50 42.4453V33.8887H26.1113Z" fill="#CECECE"/>
<path d="M56.666 3.33398V0H43.334V7.77734H52.5V10.2773H43.0547V13.334H56.3887V5.27734H46.9453V3.33398H56.666Z" fill="white"/>
<path d="M32.5 7.86133V10.2773H41.9453V13.334H28.6113V5.36133V0H41.666V3.33398H32.5V7.86133Z" fill="white"/>
<path d="M71.3887 3.33398V0H58.0547V7.77734H67.2227V10.2773H57.7773V13.334H71.1113V5.27734H61.666V3.33398H71.3887Z" fill="white"/>
</svg>
