<svg width="88" height="21" viewBox="0 0 88 21" fill="none" xmlns="http://www.w3.org/2000/svg">
<path d="M14.12 0.259999V4.628H6.22397V8.1H12.048V12.272H6.22397V20H0.735969V0.259999H14.12Z" fill="#A7D129"/>
<path d="M15.6553 13.304C15.6553 11.96 15.9193 10.768 16.4473 9.728C16.9913 8.688 17.7193 7.888 18.6313 7.328C19.5593 6.768 20.5913 6.488 21.7273 6.488C22.7193 6.488 23.5833 6.688 24.3193 7.088C25.0713 7.488 25.6713 7.992 26.1193 8.6V6.704H29.5033V20H26.1193V18.056C25.6873 18.68 25.0873 19.2 24.3193 19.616C23.5673 20.016 22.6953 20.216 21.7033 20.216C20.5833 20.216 19.5593 19.928 18.6313 19.352C17.7193 18.776 16.9913 17.968 16.4473 16.928C15.9193 15.872 15.6553 14.664 15.6553 13.304ZM26.1193 13.352C26.1193 12.536 25.9593 11.84 25.6393 11.264C25.3193 10.672 24.8873 10.224 24.3433 9.92C23.7993 9.6 23.2153 9.44 22.5913 9.44C21.9673 9.44 21.3913 9.592 20.8633 9.896C20.3353 10.2 19.9033 10.648 19.5673 11.24C19.2473 11.816 19.0873 12.504 19.0873 13.304C19.0873 14.104 19.2473 14.808 19.5673 15.416C19.9033 16.008 20.3353 16.464 20.8633 16.784C21.4073 17.104 21.9833 17.264 22.5913 17.264C23.2153 17.264 23.7993 17.112 24.3433 16.808C24.8873 16.488 25.3193 16.04 25.6393 15.464C25.9593 14.872 26.1193 14.168 26.1193 13.352ZM36.1449 8.768C36.5769 8.064 37.1369 7.512 37.8249 7.112C38.5289 6.712 39.3289 6.512 40.2249 6.512V10.04H39.3369C38.2809 10.04 37.4809 10.288 36.9369 10.784C36.4089 11.28 36.1449 12.144 36.1449 13.376V20H32.7849V6.704H36.1449V8.768ZM49.976 6.512C50.984 6.512 51.88 6.736 52.664 7.184C53.448 7.616 54.056 8.264 54.488 9.128C54.936 9.976 55.16 11 55.16 12.2V20H51.8V12.656C51.8 11.6 51.536 10.792 51.008 10.232C50.48 9.656 49.76 9.368 48.848 9.368C47.92 9.368 47.184 9.656 46.64 10.232C46.112 10.792 45.848 11.6 45.848 12.656V20H42.488V2.24H45.848V8.36C46.28 7.784 46.856 7.336 47.576 7.016C48.296 6.68 49.096 6.512 49.976 6.512ZM57.4912 13.304C57.4912 11.96 57.7552 10.768 58.2832 9.728C58.8272 8.688 59.5552 7.888 60.4672 7.328C61.3952 6.768 62.4272 6.488 63.5632 6.488C64.5552 6.488 65.4192 6.688 66.1552 7.088C66.9072 7.488 67.5072 7.992 67.9552 8.6V6.704H71.3392V20H67.9552V18.056C67.5232 18.68 66.9232 19.2 66.1552 19.616C65.4032 20.016 64.5312 20.216 63.5392 20.216C62.4192 20.216 61.3952 19.928 60.4672 19.352C59.5552 18.776 58.8272 17.968 58.2832 16.928C57.7552 15.872 57.4912 14.664 57.4912 13.304ZM67.9552 13.352C67.9552 12.536 67.7952 11.84 67.4752 11.264C67.1552 10.672 66.7232 10.224 66.1792 9.92C65.6352 9.6 65.0512 9.44 64.4272 9.44C63.8032 9.44 63.2272 9.592 62.6992 9.896C62.1712 10.2 61.7392 10.648 61.4032 11.24C61.0832 11.816 60.9232 12.504 60.9232 13.304C60.9232 14.104 61.0832 14.808 61.4032 15.416C61.7392 16.008 62.1712 16.464 62.6992 16.784C63.2432 17.104 63.8192 17.264 64.4272 17.264C65.0512 17.264 65.6352 17.112 66.1792 16.808C66.7232 16.488 67.1552 16.04 67.4752 15.464C67.7952 14.872 67.9552 14.168 67.9552 13.352ZM81.9888 6.512C83.5728 6.512 84.8528 7.016 85.8288 8.024C86.8048 9.016 87.2928 10.408 87.2928 12.2V20H83.9328V12.656C83.9328 11.6 83.6688 10.792 83.1408 10.232C82.6128 9.656 81.8928 9.368 80.9808 9.368C80.0528 9.368 79.3168 9.656 78.7728 10.232C78.2448 10.792 77.9808 11.6 77.9808 12.656V20H74.6208V6.704H77.9808V8.36C78.4288 7.784 78.9968 7.336 79.6848 7.016C80.3888 6.68 81.1568 6.512 81.9888 6.512Z" fill="white"/>
</svg>
