<svg width="74" height="112" viewBox="0 0 74 112" fill="none" xmlns="http://www.w3.org/2000/svg">
<g clip-path="url(#clip0_39_60)">
<path d="M18.5255 111.192C28.731 111.192 37.0137 102.909 37.0137 92.7038V74.2157H18.5255C8.3201 74.2157 0.0374146 82.4984 0.0374146 92.7038C0.0374146 102.909 8.3201 111.192 18.5255 111.192Z" fill="#0ACF83"/>
<path d="M0.0374146 55.7276C0.0374146 45.5222 8.3201 37.2395 18.5255 37.2395H37.0137V74.2158H18.5255C8.3201 74.2158 0.0374146 65.9331 0.0374146 55.7276Z" fill="#A259FF"/>
<path d="M0.0375671 18.7513C0.0375671 8.54587 8.32025 0.263184 18.5257 0.263184H37.0138V37.2395H18.5257C8.32025 37.2395 0.0375671 28.9568 0.0375671 18.7513Z" fill="#F24E1E"/>
<path d="M37.0137 0.263184H55.5018C65.7073 0.263184 73.9899 8.54587 73.9899 18.7513C73.9899 28.9568 65.7073 37.2395 55.5018 37.2395H37.0137V0.263184Z" fill="#FF7262"/>
<path d="M73.9899 55.7276C73.9899 65.9331 65.7073 74.2158 55.5018 74.2158C45.2964 74.2158 37.0137 65.9331 37.0137 55.7276C37.0137 45.5222 45.2964 37.2395 55.5018 37.2395C65.7073 37.2395 73.9899 45.5222 73.9899 55.7276Z" fill="#1ABCFE"/>
</g>
<defs>
<clipPath id="clip0_39_60">
<rect width="73.9673" height="110.929" fill="white" transform="translate(0.0300293 0.263184)"/>
</clipPath>
</defs>
</svg>
