<svg width="100" height="100" viewBox="0 0 100 100" fill="none" xmlns="http://www.w3.org/2000/svg">
<path d="M33.334 100C42.5332 100 50 92.5352 50 83.334V66.668H33.334C24.1348 66.668 16.668 74.1328 16.668 83.334C16.668 92.5352 24.1348 100 33.334 100Z" fill="#0ACF83"/>
<path d="M16.666 50C16.666 40.8008 24.1309 33.334 33.332 33.334H50V66.668H33.334C24.1348 66.666 16.666 59.1992 16.666 50Z" fill="#A259FF"/>
<path d="M16.666 16.666C16.666 7.46484 24.1328 0 33.332 0H50V33.334H33.334C24.1348 33.334 16.666 25.8652 16.666 16.666Z" fill="#F24E1E"/>
<path d="M50 0H66.666C75.8652 0 83.332 7.46484 83.332 16.666C83.332 25.8672 75.8672 33.332 66.666 33.332H50V0Z" fill="#FF7262"/>
<path d="M78.449 61.7844C84.9574 55.276 84.9574 44.7238 78.449 38.2153C71.9406 31.7069 61.3884 31.7069 54.8799 38.2153C48.3715 44.7238 48.3715 55.276 54.8799 61.7844C61.3884 68.2928 71.9406 68.2928 78.449 61.7844Z" fill="#1ABCFE"/>
</svg>
