<svg width="120" height="121" viewBox="0 0 120 121" fill="none" xmlns="http://www.w3.org/2000/svg">
<g clip-path="url(#clip0_39_56)">
<path d="M25.2328 111.095L17.5008 24.2941H102.499L94.7672 111.062L59.9344 120.728L25.2328 111.095Z" fill="#E44D26"/>
<path d="M60 113.361L88.1344 105.561L94.7672 31.3933H60V113.361Z" fill="#F16529"/>
<path d="M60 63.594H45.9L44.9344 52.6933H60V42.062H59.9672H33.3L33.5672 44.8933L36.1664 74.2276H60V63.594Z" fill="#EBEBEB"/>
<path d="M60 91.2269L59.9672 91.262L48.1008 88.0276L47.3344 79.562H41.5664H36.6656L38.1328 96.2612L59.9672 102.327L60 102.294V91.2269Z" fill="#EBEBEB"/>
<path d="M25.3992 0.727661H30.7992V6.06204H35.7328V0.727661H41.1328V16.8948H35.7328V11.462H30.7992V16.8948H25.3992V0.727661Z" fill="white"/>
<path d="M48.2672 6.09485H43.5V0.727661H58.4344V6.09485H53.6672V16.8948H48.2672V6.09485Z" fill="white"/>
<path d="M60.8344 0.727661H66.4688L69.9352 6.42766L73.3992 0.727661H79.0336V16.8948H73.6664V8.89329L69.9328 14.6589H69.832L66.0984 8.89329V16.9277H60.7992V0.727661H60.8344Z" fill="white"/>
<path d="M81.7336 0.727661H87.1336V11.5605H94.7344V16.8948H81.7336V0.727661Z" fill="white"/>
<path d="M59.9672 63.5941V74.2277H73.0664L71.8336 88.0277L59.9672 91.2269V102.327L81.7664 96.2613L81.9328 94.4613L84.4336 66.4605L84.7008 63.5941H81.8344H59.9672Z" fill="white"/>
<path d="M59.9672 42.062V48.662V52.6604V52.6933H85.6336H85.6664L85.9008 50.2933L86.3672 44.8933L86.6344 42.062H59.9672Z" fill="white"/>
</g>
<defs>
<clipPath id="clip0_39_56">
<rect width="120" height="120" fill="white" transform="translate(0 0.727661)"/>
</clipPath>
</defs>
</svg>
