<svg width="100" height="100" viewBox="0 0 100 100" fill="none" xmlns="http://www.w3.org/2000/svg">
<path d="M21.0273 91.9727L14.584 19.6387H85.416L78.9727 91.9453L49.9453 100L21.0273 91.9727Z" fill="#E44D26"/>
<path d="M50 93.8613L73.4453 87.3613L78.9727 25.5547H50V93.8613Z" fill="#F16529"/>
<path d="M50 52.3887H38.25L37.4453 43.3047H50V34.4453H49.9727H27.75L27.9727 36.8047L30.1387 61.25H50V52.3887Z" fill="#EBEBEB"/>
<path d="M50 75.416L49.9727 75.4453L40.084 72.75L39.4453 65.6953H34.6387H30.5547L31.7773 79.6113L49.9727 84.666L50 84.6387V75.416Z" fill="#EBEBEB"/>
<path d="M21.166 0H25.666V4.44531H29.7773V0H34.2773V13.4727H29.7773V8.94531H25.666V13.4727H21.166V0Z" fill="white"/>
<path d="M40.2227 4.47266H36.25V0H48.6953V4.47266H44.7227V13.4727H40.2227V4.47266Z" fill="white"/>
<path d="M50.6953 0H55.3906L58.2793 4.75L61.166 0H65.8613V13.4727H61.3887V6.80469L58.2773 11.6094H58.1934L55.082 6.80469V13.5H50.666V0H50.6953Z" fill="white"/>
<path d="M68.1113 0H72.6113V9.02734H78.9453V13.4727H68.1113V0Z" fill="white"/>
<path d="M49.9727 52.3887V61.25H60.8887L59.8613 72.75L49.9727 75.416V84.666L68.1387 79.6113L68.2773 78.1113L70.3613 54.7773L70.584 52.3887H68.1953H49.9727Z" fill="white"/>
<path d="M49.9727 34.4453V39.9453V43.2773V43.3047H71.3613H71.3887L71.584 41.3047L71.9727 36.8047L72.1953 34.4453H49.9727Z" fill="white"/>
</svg>
