<svg width="101" height="101" viewBox="0 0 101 101" fill="none" xmlns="http://www.w3.org/2000/svg">
<g clip-path="url(#clip0_39_58)">
<path d="M0.455261 0.727661H100.455V100.728H0.455261V0.727661Z" fill="#F7DF1E"/>
<path d="M26.749 84.2949L34.4014 79.6637C35.8779 82.2812 37.2209 84.4961 40.4424 84.4961C43.5303 84.4961 45.4775 83.2883 45.4775 78.5898V46.6375H54.8748V78.7226C54.8748 88.4558 49.1693 92.8863 40.8451 92.8863C33.3275 92.8863 28.9639 88.9929 26.7486 84.2941M59.9791 83.2879L67.6307 78.8578C69.6451 82.1472 72.2631 84.5636 76.8943 84.5636C80.7885 84.5636 83.2713 82.6168 83.2713 79.9316C83.2713 76.7097 80.7205 75.5683 76.4244 73.6894L74.0756 72.6816C67.2955 69.7961 62.7982 66.1711 62.7982 58.5187C62.7982 51.4703 68.1682 46.1 76.5592 46.1C82.5334 46.1 86.8295 48.1812 89.917 53.6183L82.5998 58.3176C80.9885 55.4312 79.2439 54.2902 76.5588 54.2902C73.8064 54.2902 72.0611 56.0355 72.0611 58.3176C72.0611 61.1367 73.8064 62.2785 77.8338 64.0238L80.183 65.0304C88.1713 68.4543 92.6685 71.9445 92.6685 79.7976C92.6685 88.2562 86.0232 92.8875 77.0955 92.8875C68.3693 92.8875 62.7307 88.7258 59.9787 83.2883" fill="black"/>
</g>
<defs>
<clipPath id="clip0_39_58">
<rect width="100" height="100" fill="white" transform="translate(0.455261 0.727661)"/>
</clipPath>
</defs>
</svg>
