<svg width="151" height="84" viewBox="0 0 151 84" fill="none" xmlns="http://www.w3.org/2000/svg">
<mask id="mask0_49_22" style="mask-type:luminance" maskUnits="userSpaceOnUse" x="3" y="4" width="145" height="76">
<path d="M3.45525 41.7275C3.45525 62.3591 35.6915 79.0848 75.4553 79.0848C115.219 79.0848 147.455 62.3591 147.455 41.7275C147.455 21.096 115.219 4.37023 75.4553 4.37023C35.6915 4.37023 3.45525 21.0963 3.45525 41.7275Z" fill="white"/>
</mask>
<g mask="url(#mask0_49_22)">
<path d="M3.45525 41.7275C3.45525 62.3591 35.6915 79.0848 75.4553 79.0848C115.219 79.0848 147.455 62.3591 147.455 41.7275C147.455 21.096 115.219 4.37023 75.4553 4.37023C35.6915 4.37023 3.45525 21.0963 3.45525 41.7275Z" fill="url(#paint0_radial_49_22)"/>
</g>
<mask id="mask1_49_22" style="mask-type:luminance" maskUnits="userSpaceOnUse" x="0" y="0" width="151" height="84">
<path d="M0.455261 0.116791H150.455V83.3385H0.455261V0.116791Z" fill="white"/>
</mask>
<g mask="url(#mask1_49_22)">
<path d="M75.4553 76.3108C113.666 76.3108 144.643 60.8274 144.643 41.7275C144.643 22.6276 113.666 7.14429 75.4553 7.14429C37.2443 7.14429 6.26775 22.6276 6.26775 41.7275C6.26775 60.8274 37.2443 76.3108 75.4553 76.3108Z" fill="#777BB3"/>
</g>
<mask id="mask2_49_22" style="mask-type:luminance" maskUnits="userSpaceOnUse" x="0" y="0" width="151" height="84">
<path d="M0.455261 0.116791H150.455V83.3385H0.455261V0.116791Z" fill="white"/>
</mask>
<g mask="url(#mask2_49_22)">
<path d="M42.5734 46.0154C45.7154 46.0154 48.0609 45.4439 49.5448 44.3176C51.013 43.2028 52.0271 41.2707 52.5586 38.576C53.0542 36.0573 52.8654 34.2986 51.9977 33.3495C51.1104 32.3801 49.1922 31.8885 46.2964 31.8885H41.2755L38.4917 46.0156H42.5732L42.5734 46.0154ZM26.1505 63.4175C25.9175 63.4175 25.6961 63.3147 25.5479 63.137C25.4746 63.0493 25.4219 62.9467 25.3936 62.8366C25.3652 62.7265 25.3619 62.6115 25.3839 62.5L32.7609 25.063C32.7956 24.8875 32.891 24.7293 33.031 24.6156C33.1709 24.5018 33.3466 24.4396 33.5279 24.4396H49.4273C54.4242 24.4396 58.1435 25.7753 60.4813 28.4176C62.8315 31.0709 63.5573 34.7805 62.6383 39.4419C62.2643 41.3411 61.6211 43.1047 60.7268 44.6843C59.831 46.2653 58.6477 47.7281 57.2086 49.0329C55.4857 50.6234 53.5357 51.7767 51.418 52.4553C49.3339 53.1249 46.6576 53.4648 43.4628 53.4648H37.0247L35.1862 62.7943C35.1516 62.9699 35.0562 63.1281 34.9164 63.2419C34.7765 63.3557 34.6008 63.4179 34.4195 63.418H26.1505V63.4175Z" fill="black"/>
<path d="M41.9198 32.659H46.2969C49.7917 32.659 51.006 33.4154 51.4185 33.8662C52.1029 34.6147 52.232 36.1928 51.7922 38.4298C51.2979 40.9342 50.3818 42.7098 49.0688 43.7069C47.7245 44.7277 45.5391 45.245 42.574 45.245H39.4396L41.9198 32.659ZM49.4276 23.669H33.5281C33.1655 23.669 32.8142 23.7935 32.5344 24.021C32.2546 24.2485 32.0637 24.5649 31.9945 24.916L24.6175 62.3535C24.5735 62.5766 24.5802 62.8065 24.6369 63.0268C24.6936 63.2471 24.7991 63.4522 24.9456 63.6276C25.0922 63.803 25.2763 63.9442 25.4847 64.0412C25.6931 64.1381 25.9206 64.1884 26.151 64.1885H34.4193C34.7819 64.1885 35.1333 64.0641 35.4132 63.8366C35.693 63.609 35.8839 63.2926 35.9531 62.9414L37.6688 54.2353H43.463C46.7396 54.2353 49.4979 53.8829 51.6609 53.1881C53.8849 52.4753 55.9318 51.2668 57.7427 49.5962C59.2406 48.2369 60.4771 46.7111 61.4094 45.0608C62.3417 43.4105 63.0162 41.5691 63.4063 39.5893C64.3737 34.6823 63.5878 30.7529 61.0703 27.911C58.5776 25.0964 54.6604 23.6693 49.4281 23.6693M37.5445 46.7864H42.574C45.9073 46.7864 48.3906 46.1674 50.0219 44.9283C51.6531 43.6892 52.7542 41.6213 53.3261 38.7234C53.8729 35.9411 53.624 33.9777 52.5787 32.8337C51.5333 31.6896 49.438 31.1179 46.2974 31.1179H40.6323L37.5448 46.7861M49.4284 25.2101C54.2115 25.2101 57.7008 26.4482 59.894 28.9243C62.0872 31.4004 62.7474 34.8572 61.8724 39.2949C61.5122 41.123 60.9031 42.7943 60.0456 44.3088C59.188 45.8232 58.0659 47.2094 56.6805 48.4657C55.0294 49.9897 53.1953 51.0754 51.1771 51.7227C49.1589 52.3712 46.5885 52.6941 43.4635 52.6941H36.3813L34.4203 62.6473H26.1521L33.5281 25.2101H49.4279" fill="white"/>
<path d="M81.5966 53.4643C81.3633 53.4643 81.1422 53.3616 80.994 53.1839C80.8458 53.0061 80.7851 52.7729 80.8299 52.5468L84.0929 35.9821C84.4034 34.4068 84.3268 33.2761 83.8776 32.7984C83.6026 32.5063 82.7765 32.0165 80.3341 32.0165H74.4221L70.3192 52.8404C70.2847 53.016 70.1892 53.1743 70.0493 53.2881C69.9094 53.4019 69.7337 53.4641 69.5523 53.4641H61.3492C61.234 53.4641 61.1202 53.439 61.016 53.3905C60.9117 53.342 60.8197 53.2714 60.7464 53.1837C60.6731 53.096 60.6204 52.9934 60.592 52.8833C60.5636 52.7731 60.5603 52.6582 60.5823 52.5466L67.9593 15.1097C67.994 14.9341 68.0894 14.7759 68.2294 14.6622C68.3693 14.5484 68.545 14.4863 68.7263 14.4863H76.9294C77.0446 14.4863 77.1584 14.5114 77.2626 14.5599C77.3668 14.6084 77.4589 14.679 77.5322 14.7666C77.6055 14.8543 77.6582 14.9569 77.6866 15.0671C77.715 15.1772 77.7183 15.2922 77.6963 15.4038L75.9161 24.4395H82.276C87.1211 24.4395 90.4062 25.282 92.3203 27.0152C94.2734 28.7835 94.8794 31.6104 94.1294 35.4196L90.6971 52.841C90.6625 53.0165 90.5671 53.1748 90.4272 53.2886C90.2872 53.4024 90.1115 53.4646 89.9302 53.4646H81.5969L81.5966 53.4643Z" fill="black"/>
<path d="M76.9292 13.7157H68.7261C68.3634 13.7156 68.012 13.8401 67.7322 14.0676C67.4523 14.2951 67.2614 14.6116 67.1922 14.9627L59.8151 52.3996C59.7712 52.6228 59.7778 52.8527 59.8346 53.073C59.8913 53.2933 59.9968 53.4985 60.1434 53.6739C60.29 53.8492 60.4741 53.9905 60.6825 54.0874C60.8909 54.1843 61.1185 54.2346 61.349 54.2346H69.5521C69.9148 54.2346 70.2661 54.1102 70.546 53.8827C70.8259 53.6552 71.0167 53.3387 71.0859 52.9876L75.0659 32.787H80.3341C82.7724 32.787 83.2841 33.3008 83.3047 33.3228C83.4526 33.4795 83.6472 34.2064 83.3261 35.8349L80.063 52.3996C80.0191 52.6228 80.0257 52.8527 80.0825 53.073C80.1392 53.2933 80.2447 53.4985 80.3913 53.6739C80.5379 53.8492 80.722 53.9905 80.9304 54.0874C81.1388 54.1843 81.3664 54.2346 81.5969 54.2346H89.9302C90.2929 54.2346 90.6443 54.1102 90.9241 53.8827C91.204 53.6552 91.3949 53.3387 91.4641 52.9876L94.8964 35.5662C95.7018 31.4771 95.0128 28.4092 92.8495 26.4478C90.7849 24.5779 87.3266 23.6686 82.2766 23.6686H76.8641L78.4638 15.5506C78.5078 15.3275 78.5012 15.0975 78.4445 14.8772C78.3877 14.6569 78.2823 14.4517 78.1357 14.2762C77.9891 14.1008 77.805 13.9596 77.5965 13.8626C77.3881 13.7657 77.1604 13.7154 76.93 13.7154M76.93 15.2565L74.969 25.2098H82.2768C86.875 25.2098 90.0466 26.0014 91.7925 27.5826C93.5383 29.1638 94.0607 31.7283 93.3633 35.2724L89.931 52.6935H81.5977L84.8607 36.1293C85.232 34.245 85.0956 32.9597 84.4508 32.2744C83.806 31.5891 82.4336 31.2459 80.3349 31.2459H73.7781L69.5526 52.6935H61.3495L68.7266 15.2565H76.9297" fill="white"/>
<path d="M107.109 46.0154C110.251 46.0154 112.596 45.4439 114.08 44.3176C115.548 43.2028 116.563 41.2712 117.094 38.576C117.59 36.0573 117.401 34.2986 116.533 33.3495C115.646 32.3801 113.728 31.8885 110.832 31.8885H105.811L103.027 46.0156H107.109L107.109 46.0154ZM90.6865 63.4175C90.4534 63.4175 90.2321 63.3147 90.0839 63.137C90.0106 63.0493 89.9578 62.9467 89.9294 62.8366C89.901 62.7265 89.8976 62.6115 89.9196 62.5L97.2966 25.063C97.3313 24.8874 97.4268 24.7292 97.5667 24.6155C97.7067 24.5017 97.8825 24.4396 98.0638 24.4396H113.963C118.96 24.4396 122.679 25.7753 125.017 28.4176C127.367 31.0709 128.093 34.7799 127.174 39.4419C126.8 41.3411 126.157 43.1047 125.262 44.6843C124.366 46.2653 123.183 47.7281 121.744 49.0329C120.021 50.6234 118.071 51.7767 115.953 52.4553C113.869 53.1249 111.193 53.4648 107.998 53.4648H101.559L99.7216 62.7943C99.6871 62.97 99.5916 63.1282 99.4516 63.242C99.3116 63.3558 99.1358 63.418 98.9544 63.418H90.6862L90.6865 63.4175Z" fill="black"/>
<path d="M106.455 32.659H110.832C114.327 32.659 115.541 33.4154 115.954 33.8662C116.639 34.6147 116.768 36.1928 116.328 38.4296C115.833 40.9339 114.917 42.7098 113.604 43.7069C112.26 44.7277 110.074 45.245 107.109 45.245H103.976L106.455 32.659ZM113.963 23.669H98.0636C97.7009 23.669 97.3496 23.7935 97.0698 24.021C96.79 24.2485 96.5992 24.5649 96.53 24.916L89.1531 62.3535C89.1092 62.5766 89.1158 62.8065 89.1726 63.0268C89.2293 63.2471 89.3347 63.4522 89.4813 63.6276C89.6279 63.803 89.812 63.9442 90.0204 64.0412C90.2288 64.1381 90.4563 64.1884 90.6867 64.1885H98.955C99.3176 64.1885 99.669 64.0641 99.9489 63.8366C100.229 63.609 100.42 63.2926 100.489 62.9414L102.204 54.2353H107.998C111.275 54.2353 114.033 53.8829 116.196 53.1881C118.42 52.4753 120.467 51.2668 122.279 49.5956C123.777 48.2369 125.01 46.7111 125.945 45.0608C126.88 43.4105 127.552 41.5691 127.942 39.5893C128.909 34.682 128.123 30.7526 125.606 27.9107C123.113 25.0964 119.196 23.6693 113.964 23.6693M102.08 46.7864H107.109C110.443 46.7864 112.926 46.1674 114.557 44.9283C116.189 43.6892 117.29 41.6213 117.861 38.7234C118.409 35.9411 118.16 33.9777 117.114 32.8337C116.069 31.6896 113.973 31.1179 110.833 31.1179H105.168L102.08 46.7861M113.964 25.2101C118.747 25.2101 122.236 26.4482 124.429 28.9243C126.623 31.4004 127.283 34.8572 126.408 39.2949C126.048 41.123 125.439 42.7943 124.581 44.3088C123.723 45.8232 122.601 47.2094 121.216 48.4657C119.565 49.9897 117.731 51.0754 115.713 51.7227C113.694 52.3712 111.124 52.6941 107.999 52.6941H100.917L98.9558 62.6473H90.6875L98.0646 25.2104H113.964" fill="white"/>
</g>
<defs>
<radialGradient id="paint0_radial_49_22" cx="0" cy="0" r="1" gradientUnits="userSpaceOnUse" gradientTransform="translate(46.6844 17.5041) scale(94.5463 93.254)">
<stop stop-color="#AEB2D5"/>
<stop offset="0.3" stop-color="#AEB2D5"/>
<stop offset="0.75" stop-color="#484C89"/>
<stop offset="1" stop-color="#484C89"/>
</radialGradient>
</defs>
</svg>
